<?xml version="1.0" encoding="utf-8"?>
<!-- Generator: Adobe Illustrator 19.0.0, SVG Export Plug-In . SVG Version: 6.00 Build 0)  -->
<svg version="1.1" id="Layer_1" xmlns="http://www.w3.org/2000/svg" xmlns:xlink="http://www.w3.org/1999/xlink" x="0px" y="0px"
	 viewBox="0 0 612 792" style="enable-background:new 0 0 612 792;" xml:space="preserve">
<style type="text/css">
	.st0{fill:#FFFFFF;}
</style>
<g id="XMLID_30_">
	<path id="XMLID_2_" class="st0" d="M73,56.4c0,8.1-4.4,16.5-12.2,19.7c-7.5,3.1-15.7,0-20.4-6.3c-5.1-6.9-5.6-16.7-1.6-24.2
		c3.7-6.9,11.4-11.4,19.3-9.6C67.4,38,73,47.3,73,56.4z"/>
	<path id="XMLID_3_" d="M54.6,80.3c-9.4,0-17-7.1-19.7-15.7c-3-9.2-0.8-20,6.3-26.7c6.6-6.3,16.6-7.3,24.2-2.1
		c8,5.5,11.4,15.8,9.8,25.2c-1.6,8.9-8,17.3-17.3,19C56.9,80.2,55.7,80.3,54.6,80.3z M54.6,38.5c-7,0-12.8,5.3-14.8,11.8
		c-2.2,6.9-0.5,15,4.9,19.9c5,4.6,12.5,5.3,18.1,1.4c5.9-4.1,8.5-11.8,7.3-18.8C68.8,45.3,62.6,38.5,54.6,38.5z"/>
</g>
<path id="XMLID_4_" d="M57.2,160.1c-1.6,0-3.2,0-4.8,0c-0.6,0-0.4,0.1-0.5-0.4c-0.2-1.4,0-2.9,0-4.3c0-6.3,0-12.6,0-18.8
	c0-8.4,0-16.9,0-25.3c0-7.6,0-15.1,0-22.7c0-2.5,0-5.1,0-7.6c0-0.8,0-1.6,0-2.4c0-0.3-0.1-1,0-1.2c0.2-0.4,1.4-0.2,1.9-0.2
	c1,0,1.9-0.1,2.9,0c0.2,0,0.4-0.1,0.4,0.1c0.1,0.2,0,0.8,0,1c0,0.7,0,1.4,0,2.2c0,5.8,0,11.7,0,17.5c0,8.3,0,16.6,0,24.9
	c0,7.8,0,15.6,0,23.5c0,4.4,0,8.8,0,13.2C57.2,159.7,57.2,159.9,57.2,160.1z"/>
<path id="XMLID_5_" d="M28.5,184.7c-0.8-1.3-1.5-2.5-2.3-3.8c-0.1-0.2-0.8-1-0.7-1.2c0-0.1,0.3-0.2,0.3-0.2c1.6-1.6,3.6-2.8,5.3-4.2
	c5.8-4.7,11.7-9.3,17.5-14c1.5-1.2,3-2.4,4.5-3.6c0.8,1.3,1.5,2.5,2.3,3.8c0.1,0.2,0.8,1,0.7,1.2c0,0.1-0.3,0.2-0.3,0.2
	c-1.6,1.6-3.6,2.8-5.3,4.2c-5.8,4.7-11.7,9.3-17.5,14C31.5,182.3,30,183.5,28.5,184.7z"/>
<path id="XMLID_6_" d="M71.1,184.3c-2.8-3.3-5.5-6.6-8.3-9.9c-2.1-2.5-4.1-4.9-6.2-7.4c-0.8-0.9-1.5-1.9-2.3-2.8
	c-0.4-0.5-1-1.1-1.4-1.7c0-0.1-0.2-0.2-0.2-0.3c0-0.2,0.8-0.9,0.9-1.1c0.9-1.1,1.9-2.1,2.8-3.2c2.8,3.3,5.5,6.6,8.3,9.9
	c2.1,2.5,4.1,4.9,6.2,7.4c0.8,0.9,1.5,1.9,2.3,2.8c0.4,0.5,1,1.1,1.4,1.7c0,0.1,0.2,0.2,0.2,0.3c0,0.2-0.8,0.9-0.9,1.1
	C73,182.2,72.1,183.2,71.1,184.3z"/>
<path id="XMLID_7_" d="M73,100.1c-5.7-0.1-11.4-0.2-17.1-0.3c-7.3-0.1-14.6-0.3-21.9-0.4c-0.2,0-0.8,0.1-1,0c-0.2-0.1-0.1,0-0.2-0.4
	c-0.1-1.9,0.1-3.8,0.1-5.6c5.7,0.1,11.4,0.2,17.1,0.3c7.3,0.1,14.6,0.3,21.9,0.4c0.2,0,0.8-0.1,1,0c0.2,0.1,0.1,0,0.2,0.4
	C73.1,96.3,73,98.2,73,100.1z"/>
<path id="XMLID_8_" d="M94.1,59c-0.8-0.8-1.7-1.6-2.5-2.4c-0.4-0.4-1.1-0.8-1.4-1.3c-0.1-0.3-0.2,0-0.1-0.3c0.1-0.5,0.9-1.3,1.3-1.7
	c3.2-4.3,6.8-8.3,10.7-11.9c7.4-6.9,16-12.4,25.3-16.1c9.5-3.7,19.8-5.4,30-4.9c10.6,0.5,20.9,3.4,30.3,8.3
	c4.9,2.6,9.5,5.7,13.8,9.2c1.1,0.9,2.1,1.8,3.2,2.8c0.3,0.2,1.5,1.1,1.5,1.4c0,0.1-0.2,0.2-0.2,0.3c-0.6,1.2-1.7,2.4-2.5,3.5
	c-0.2,0.3-0.4,0.6-0.7,0.9c-12.2-11.7-28-19.3-44.9-20.3c-15.8-0.9-31.5,3.9-44.4,13C106,44.8,99.5,51.5,94.1,59z"/>
<path id="XMLID_9_" d="M201.9,44.8c-0.6-4.3-1.2-8.6-1.7-12.9c-0.7-5.3-1.4-10.6-2.1-15.9c-0.1-0.8,0.1-0.6,0.9-0.7
	c1.4-0.3,2.8-0.5,4.2-0.8c0.6,4.3,1.2,8.6,1.7,12.9c0.7,5.3,1.4,10.6,2.1,15.9c0.1,0.8-0.1,0.6-0.9,0.7
	C204.7,44.3,203.3,44.6,201.9,44.8z"/>
<path id="XMLID_10_" d="M183.3,59.1c-0.4-0.9-0.8-1.9-1.1-2.8c-0.2-0.6-0.5-1.2-0.7-1.8c-0.1-0.1-0.4-0.7-0.3-0.8
	c0.1-0.2,0.8-0.4,1-0.5c0.8-0.4,1.6-0.9,2.4-1.3c5-2.7,9.9-5.3,14.9-8c1.4-0.7,2.7-1.5,4.1-2.2c0.4,0.9,0.8,1.9,1.1,2.8
	c0.2,0.6,0.5,1.2,0.7,1.8c0.1,0.1,0.4,0.7,0.3,0.8c-0.1,0.2-0.8,0.4-1,0.5c-0.8,0.4-1.6,0.9-2.4,1.3c-5,2.7-9.9,5.3-14.9,8
	C186,57.7,184.6,58.4,183.3,59.1z"/>
<path id="XMLID_11_" d="M293.6,157.1c-11.2,0-22.3-3.6-31.4-10.1c-8.9-6.4-15.8-15.5-19.6-25.9c-3.9-10.8-4.3-22.8-1.2-33.9
	c3-10.6,9.2-20.2,17.7-27.3c8.5-7.1,19.2-11.5,30.3-12.4c11.3-0.9,22.6,1.9,32.3,7.8C331,61,338.5,69.6,343,79.6
	c4.7,10.4,6,22.3,3.7,33.5c-2.2,10.9-7.7,21-15.7,28.7c-7.9,7.7-18.2,12.9-29.1,14.6C299.2,156.9,296.4,157.1,293.6,157.1z
	 M293.6,53.4c-10.1,0-20.1,3.2-28.4,9.1c-8,5.7-14.2,13.8-17.6,23c-3.5,9.6-3.9,20.2-1.1,30c2.7,9.5,8.3,18,15.9,24.3
	c7.7,6.4,17.4,10.3,27.4,11.1c10.1,0.8,20.4-1.6,29.1-6.9c8.4-5.1,15.2-12.7,19.3-21.6c4.3-9.3,5.5-19.9,3.4-29.9
	c-2-9.7-7-18.6-14.1-25.5c-7.2-6.9-16.4-11.4-26.2-13C298.7,53.6,296.1,53.4,293.6,53.4z"/>
<path id="XMLID_12_" d="M438.3,203.6c-2.7-2.2-5.5-4.5-8.2-6.7c-6.5-5.3-13-10.6-19.5-16c-7.6-6.2-15.1-12.4-22.7-18.6
	c-6-4.9-12-9.9-18.1-14.8c-1.6-1.3-3.2-2.6-4.8-3.9c-0.2-0.2-0.8-0.5-0.9-0.8c-0.1-0.2,0-0.2,0.1-0.4c0.5-0.9,1.1-1.8,1.7-2.7
	c0.4-0.6,0.8-1.3,1.2-1.9c2.7,2.2,5.5,4.5,8.2,6.7c6.5,5.3,13,10.6,19.5,16c7.6,6.2,15.1,12.4,22.7,18.6c6,4.9,12,9.9,18.1,14.8
	c1.6,1.3,3.2,2.6,4.8,3.9c0.2,0.2,0.8,0.5,0.9,0.8c0.1,0.2,0,0.2-0.1,0.4c-0.5,0.9-1.1,1.8-1.7,2.7
	C439.1,202.4,438.7,203,438.3,203.6z"/>
<path id="XMLID_13_" d="M442.5,201.2c-1.5,0-3.1,0-4.6,0c-0.8,0-0.7,0.1-0.7-0.6c0-2.4,0-4.9,0-7.3c0-7.6,0-15.2,0-22.8
	c0-1.3,0-2.6,0-3.9c0-0.3-0.2-1.5,0-1.8c0.3-0.4,2.7-0.1,3.2-0.1c0.3,0,1.8-0.2,2,0c0.1,0.1,0,0.2,0,0.3c0.2,0.7,0,1.6,0,2.3
	c0,1.4,0,2.8,0,4.1c0,3.8,0,7.6,0,11.3c0,6,0,12.1,0,18.1C442.5,200.9,442.5,201,442.5,201.2z"/>
<path id="XMLID_14_" d="M413.7,213.2c-0.3-1-0.6-2-0.9-3c-0.2-0.7-0.4-1.3-0.6-2c0-0.1-0.3-0.7-0.2-0.8c0.1-0.2,0.9-0.3,1-0.4
	c0.9-0.3,1.7-0.7,2.6-1c5.3-2,10.5-4,15.8-6.1c1.4-0.6,2.9-1.1,4.3-1.7c0.3,1,0.6,2,0.9,3c0.2,0.7,0.4,1.3,0.6,2
	c0,0.1,0.3,0.7,0.2,0.8c-0.1,0.2-0.9,0.3-1,0.4c-0.9,0.3-1.7,0.7-2.6,1c-5.3,2-10.5,4-15.8,6.1C416.6,212.1,415.2,212.6,413.7,213.2
	z"/>
<path id="XMLID_15_" d="M513.2,255.9c-9.2,0-18.5-1.3-27.2-4.5c-6.2-2.3-12.6-5.8-16.4-11.4c-3.1-4.6-3.6-10.2-1-15.1
	c3.1-5.8,9.1-9.5,14.9-12.1c8.2-3.6,17.3-5.1,26.2-5.5c9.3-0.3,18.8,0.6,27.7,3.4c10.5,3.3,26.2,12.2,21.2,25.7
	c-2.2,5.9-7.8,10-13.2,12.8c-7.7,3.9-16.4,5.7-25,6.4C518,255.8,515.6,255.9,513.2,255.9z M513.2,213.3c-8.3,0-16.7,1.1-24.6,3.8
	c-5.1,1.8-10.7,4.4-14.2,8.7c-2.5,3.1-3.1,6.8-0.9,10.2c2.8,4.4,8.1,7.2,12.8,9.1c7.4,3,15.5,4.3,23.5,4.6c8.4,0.3,17-0.5,25.2-2.9
	c5.7-1.7,11.6-4.1,15.8-8.4c2.7-2.7,4.3-6.4,2.6-10.1c-2.1-4.5-7.1-7.5-11.4-9.5c-6.9-3.2-14.6-4.7-22.1-5.3
	C517.7,213.4,515.4,213.3,513.2,213.3z"/>
<path id="XMLID_16_" d="M513.2,280.2c-9.2,0-18.5-1.3-27.2-4.5c-6.2-2.3-12.6-5.8-16.4-11.4c-3.1-4.6-3.6-10.2-1-15.1
	c3.1-5.8,9.1-9.5,14.9-12.1c8.2-3.6,17.3-5.1,26.2-5.5c9.3-0.3,18.8,0.6,27.7,3.4c10.5,3.3,26.2,12.2,21.2,25.7
	c-2.2,5.9-7.8,10-13.2,12.8c-7.7,3.9-16.4,5.7-25,6.4C518,280.1,515.6,280.2,513.2,280.2z M513.2,237.6c-8.3,0-16.7,1.1-24.6,3.8
	c-5.1,1.8-10.7,4.4-14.2,8.7c-2.5,3.1-3.1,6.8-0.9,10.2c2.8,4.4,8.1,7.2,12.8,9.1c7.4,3,15.5,4.3,23.5,4.6c8.4,0.3,17-0.5,25.2-2.9
	c5.7-1.7,11.6-4.1,15.8-8.4c2.7-2.7,4.3-6.4,2.6-10.1c-2.1-4.5-7.1-7.5-11.4-9.5c-6.9-3.2-14.6-4.7-22.1-5.3
	C517.7,237.7,515.4,237.6,513.2,237.6z"/>
<path id="XMLID_17_" d="M513.2,305.5c-9.2,0-18.5-1.3-27.2-4.5c-6.2-2.3-12.6-5.8-16.4-11.4c-3.1-4.6-3.6-10.2-1-15.1
	c3.1-5.8,9.1-9.5,14.9-12.1c8.2-3.6,17.3-5.1,26.2-5.5c9.3-0.3,18.8,0.6,27.7,3.4c10.5,3.3,26.2,12.2,21.2,25.7
	c-2.2,5.9-7.8,10-13.2,12.8c-7.7,3.9-16.4,5.7-25,6.4C518,305.4,515.6,305.5,513.2,305.5z M513.2,262.9c-8.3,0-16.7,1.1-24.6,3.8
	c-5.1,1.8-10.7,4.4-14.2,8.7c-2.5,3.1-3.1,6.8-0.9,10.2c2.8,4.4,8.1,7.2,12.8,9.1c7.4,3,15.5,4.3,23.5,4.6c8.4,0.3,17-0.5,25.2-2.9
	c5.7-1.7,11.6-4.1,15.8-8.4c2.7-2.7,4.3-6.4,2.6-10.1c-2.1-4.5-7.1-7.5-11.4-9.5c-6.9-3.2-14.6-4.7-22.1-5.3
	C517.7,263,515.4,262.9,513.2,262.9z"/>
<path id="XMLID_18_" d="M467.5,284.8c-0.1-7-0.2-14-0.3-21c-0.1-9.8-0.2-19.5-0.4-29.3c0-0.6,0-1.3,0-1.9c0-0.2-0.1-0.8,0-0.9
	c0.2-0.2,1.4-0.1,1.8-0.1c1.2,0,2.3,0,3.5-0.1c0.1,7,0.2,14,0.3,21c0.1,9.8,0.2,19.5,0.4,29.3c0,0.6,0,1.3,0,1.9
	c0,0.2,0.1,0.8,0,0.9c-0.2,0.2-1.4,0.1-1.8,0.1C469.8,284.8,468.6,284.8,467.5,284.8z"/>
<path id="XMLID_19_" d="M559.5,281.2c-0.9,0-1.8,0-2.7,0c-0.6,0-1.1,0-1.7,0c-0.1,0-0.7,0.1-0.8,0c-0.2-0.2,0-1.4,0-1.7
	c0-3.6,0-7.1,0-10.7c0-10,0-20,0-30c0-1.6,0-3.2,0-4.8c0-0.5,0-1,0-1.5c0-0.2-0.1-0.7,0-0.8c0.1-0.2,0.5-0.1,0.8-0.1
	c1.2,0,2.5,0,3.7,0c1,0,0.8,0.1,0.8,1c0,8.3,0,16.6,0,24.9c0,7.8,0,15.5,0,23.3C559.5,280.9,559.5,281,559.5,281.2z"/>
</svg>
